<mxfile host="app.diagrams.net" agent="Mozilla/5.0 (Windows NT 10.0; Win64; x64) AppleWebKit/537.36 (KHTML, like Gecko) Chrome/131.0.0.0 Safari/537.36 Edg/131.0.0.0" version="24.8.2">
  <diagram name="Страница — 1" id="lDl9Y2BRuPMdgW0GkRo1">
    <mxGraphModel dx="1282" dy="533" grid="1" gridSize="10" guides="1" tooltips="1" connect="1" arrows="1" fold="1" page="1" pageScale="1" pageWidth="583" pageHeight="827" math="0" shadow="0">
      <root>
        <mxCell id="0" />
        <mxCell id="1" parent="0" />
        <mxCell id="KI2yaJVuh1rtXTNmggCS-3" value="C1" style="swimlane;whiteSpace=wrap;html=1;" parent="1" vertex="1">
          <mxGeometry x="30" y="40" width="310" height="750" as="geometry" />
        </mxCell>
        <mxCell id="KI2yaJVuh1rtXTNmggCS-4" value="&amp;lt;&amp;lt;const&amp;gt;&amp;gt;- privateConst : int (default: 1)" style="text;html=1;align=center;verticalAlign=middle;resizable=0;points=[];autosize=1;strokeColor=none;fillColor=none;" parent="KI2yaJVuh1rtXTNmggCS-3" vertex="1">
          <mxGeometry x="-5" y="20" width="240" height="30" as="geometry" />
        </mxCell>
        <mxCell id="KI2yaJVuh1rtXTNmggCS-7" value="-privStr : string (default: &quot;private field&quot;)" style="text;html=1;align=center;verticalAlign=middle;resizable=0;points=[];autosize=1;strokeColor=none;fillColor=none;" parent="KI2yaJVuh1rtXTNmggCS-3" vertex="1">
          <mxGeometry x="-5" y="40" width="230" height="30" as="geometry" />
        </mxCell>
        <mxCell id="KI2yaJVuh1rtXTNmggCS-9" value="- PrivateField" style="text;html=1;align=center;verticalAlign=middle;resizable=0;points=[];autosize=1;strokeColor=none;fillColor=none;" parent="KI2yaJVuh1rtXTNmggCS-3" vertex="1">
          <mxGeometry y="60" width="90" height="30" as="geometry" />
        </mxCell>
        <mxCell id="KI2yaJVuh1rtXTNmggCS-10" value="&amp;lt;&amp;lt;getter&amp;gt;&amp;gt;- privateProperty : int" style="text;html=1;align=center;verticalAlign=middle;resizable=0;points=[];autosize=1;strokeColor=none;fillColor=none;" parent="KI2yaJVuh1rtXTNmggCS-3" vertex="1">
          <mxGeometry x="-5" y="80" width="190" height="30" as="geometry" />
        </mxCell>
        <mxCell id="KI2yaJVuh1rtXTNmggCS-11" value="&amp;lt;&amp;lt;setter&amp;gt;- privateProperty : int" style="text;html=1;align=center;verticalAlign=middle;resizable=0;points=[];autosize=1;strokeColor=none;fillColor=none;" parent="KI2yaJVuh1rtXTNmggCS-3" vertex="1">
          <mxGeometry x="-5" y="100" width="190" height="30" as="geometry" />
        </mxCell>
        <mxCell id="KI2yaJVuh1rtXTNmggCS-14" value="&amp;lt;&amp;lt;setter&amp;gt;&amp;gt;+ publicProperty : string" style="text;html=1;align=center;verticalAlign=middle;resizable=0;points=[];autosize=1;strokeColor=none;fillColor=none;" parent="KI2yaJVuh1rtXTNmggCS-3" vertex="1">
          <mxGeometry x="-4" y="290" width="210" height="30" as="geometry" />
        </mxCell>
        <mxCell id="KI2yaJVuh1rtXTNmggCS-13" value="&amp;lt;&amp;lt;getter&amp;gt;&amp;gt;+ publicProperty : string" style="text;html=1;align=center;verticalAlign=middle;resizable=0;points=[];autosize=1;strokeColor=none;fillColor=none;" parent="KI2yaJVuh1rtXTNmggCS-3" vertex="1">
          <mxGeometry x="-5" y="270" width="210" height="30" as="geometry" />
        </mxCell>
        <mxCell id="KI2yaJVuh1rtXTNmggCS-23" value="+pubInt1 : int (default: 15)" style="text;html=1;align=center;verticalAlign=middle;resizable=0;points=[];autosize=1;strokeColor=none;fillColor=none;" parent="KI2yaJVuh1rtXTNmggCS-3" vertex="1">
          <mxGeometry x="-3" y="150" width="160" height="30" as="geometry" />
        </mxCell>
        <mxCell id="KI2yaJVuh1rtXTNmggCS-24" value="+pubInt2 : int (default: 20)" style="text;html=1;align=center;verticalAlign=middle;resizable=0;points=[];autosize=1;strokeColor=none;fillColor=none;" parent="KI2yaJVuh1rtXTNmggCS-3" vertex="1">
          <mxGeometry x="-3" y="170" width="160" height="30" as="geometry" />
        </mxCell>
        <mxCell id="KI2yaJVuh1rtXTNmggCS-25" value="&amp;lt;&amp;lt;const&amp;gt;&amp;gt;+ pubConstInt : int (default: 23)" style="text;html=1;align=center;verticalAlign=middle;resizable=0;points=[];autosize=1;strokeColor=none;fillColor=none;" parent="KI2yaJVuh1rtXTNmggCS-3" vertex="1">
          <mxGeometry x="-10" y="130" width="250" height="30" as="geometry" />
        </mxCell>
        <mxCell id="KI2yaJVuh1rtXTNmggCS-26" value="+ PublicField" style="text;html=1;align=center;verticalAlign=middle;resizable=0;points=[];autosize=1;strokeColor=none;fillColor=none;" parent="KI2yaJVuh1rtXTNmggCS-3" vertex="1">
          <mxGeometry x="-2" y="250" width="90" height="30" as="geometry" />
        </mxCell>
        <mxCell id="KI2yaJVuh1rtXTNmggCS-27" value="+pubStrC1 : string (default: &quot;public field&quot;)" style="text;html=1;align=center;verticalAlign=middle;resizable=0;points=[];autosize=1;strokeColor=none;fillColor=none;" parent="KI2yaJVuh1rtXTNmggCS-3" vertex="1">
          <mxGeometry x="-3" y="190" width="240" height="30" as="geometry" />
        </mxCell>
        <mxCell id="KI2yaJVuh1rtXTNmggCS-31" value="+pubStrC2 : string (default: &quot;third public field&quot;)" style="text;html=1;align=center;verticalAlign=middle;resizable=0;points=[];autosize=1;strokeColor=none;fillColor=none;" parent="KI2yaJVuh1rtXTNmggCS-3" vertex="1">
          <mxGeometry x="-5" y="230" width="270" height="30" as="geometry" />
        </mxCell>
        <mxCell id="KI2yaJVuh1rtXTNmggCS-30" value="+pubStr2 : string (default: &quot;second public field&quot;)" style="text;html=1;align=center;verticalAlign=middle;resizable=0;points=[];autosize=1;strokeColor=none;fillColor=none;" parent="KI2yaJVuh1rtXTNmggCS-3" vertex="1">
          <mxGeometry x="-2" y="210" width="270" height="30" as="geometry" />
        </mxCell>
        <mxCell id="KI2yaJVuh1rtXTNmggCS-33" value="&amp;lt;&amp;lt;const&amp;gt;&amp;gt;# protConstInt1 : int (default: 6)&amp;nbsp;" style="text;html=1;align=center;verticalAlign=middle;resizable=0;points=[];autosize=1;strokeColor=none;fillColor=none;" parent="KI2yaJVuh1rtXTNmggCS-3" vertex="1">
          <mxGeometry x="-3" y="328" width="250" height="30" as="geometry" />
        </mxCell>
        <mxCell id="KI2yaJVuh1rtXTNmggCS-35" value="# protConstIntC2 : int (default: 8)&amp;nbsp;" style="text;html=1;align=center;verticalAlign=middle;resizable=0;points=[];autosize=1;strokeColor=none;fillColor=none;" parent="KI2yaJVuh1rtXTNmggCS-3" vertex="1">
          <mxGeometry y="350" width="200" height="30" as="geometry" />
        </mxCell>
        <mxCell id="7SIMSKuL1KMGcHpLnaTH-1" value="# protStr : string (default: &quot;protected Field&quot;)&amp;nbsp;" style="text;html=1;align=center;verticalAlign=middle;resizable=0;points=[];autosize=1;strokeColor=none;fillColor=none;" parent="KI2yaJVuh1rtXTNmggCS-3" vertex="1">
          <mxGeometry y="370" width="250" height="30" as="geometry" />
        </mxCell>
        <mxCell id="7SIMSKuL1KMGcHpLnaTH-2" value="# ProtectedField" style="text;html=1;align=center;verticalAlign=middle;resizable=0;points=[];autosize=1;strokeColor=none;fillColor=none;" parent="KI2yaJVuh1rtXTNmggCS-3" vertex="1">
          <mxGeometry y="390" width="110" height="30" as="geometry" />
        </mxCell>
        <mxCell id="7SIMSKuL1KMGcHpLnaTH-4" value="&amp;lt;&amp;lt;getter&amp;gt;&amp;gt;# protectedProperty : int" style="text;html=1;align=center;verticalAlign=middle;resizable=0;points=[];autosize=1;strokeColor=none;fillColor=none;" parent="KI2yaJVuh1rtXTNmggCS-3" vertex="1">
          <mxGeometry x="-3" y="410" width="210" height="30" as="geometry" />
        </mxCell>
        <mxCell id="7SIMSKuL1KMGcHpLnaTH-3" value="&amp;lt;&amp;lt;setter&amp;gt;&amp;gt;# protectedProperty : int" style="text;html=1;align=center;verticalAlign=middle;resizable=0;points=[];autosize=1;strokeColor=none;fillColor=none;" parent="KI2yaJVuh1rtXTNmggCS-3" vertex="1">
          <mxGeometry x="-3" y="430" width="210" height="30" as="geometry" />
        </mxCell>
        <mxCell id="7SIMSKuL1KMGcHpLnaTH-5" value="&lt;font style=&quot;font-size: 12px;&quot;&gt;&amp;lt;&amp;lt;constructor&amp;gt;&amp;gt;&lt;/font&gt;" style="text;html=1;align=center;verticalAlign=middle;resizable=0;points=[];autosize=1;strokeColor=none;fillColor=none;fontSize=16;" parent="KI2yaJVuh1rtXTNmggCS-3" vertex="1">
          <mxGeometry x="-2" y="500" width="110" height="30" as="geometry" />
        </mxCell>
        <mxCell id="7SIMSKuL1KMGcHpLnaTH-6" value="&lt;font style=&quot;font-size: 12px;&quot;&gt;+C1()&lt;/font&gt;" style="text;html=1;align=center;verticalAlign=middle;resizable=0;points=[];autosize=1;strokeColor=none;fillColor=none;fontSize=16;" parent="KI2yaJVuh1rtXTNmggCS-3" vertex="1">
          <mxGeometry x="1" y="515" width="50" height="30" as="geometry" />
        </mxCell>
        <mxCell id="7SIMSKuL1KMGcHpLnaTH-7" value="&lt;font style=&quot;font-size: 12px;&quot;&gt;+C1(C1 c)&lt;/font&gt;" style="text;html=1;align=center;verticalAlign=middle;resizable=0;points=[];autosize=1;strokeColor=none;fillColor=none;fontSize=16;" parent="KI2yaJVuh1rtXTNmggCS-3" vertex="1">
          <mxGeometry x="-2" y="570" width="80" height="30" as="geometry" />
        </mxCell>
        <mxCell id="7SIMSKuL1KMGcHpLnaTH-8" value="&lt;font style=&quot;font-size: 12px;&quot;&gt;&amp;lt;&amp;lt;constructor&amp;gt;&amp;gt;&lt;/font&gt;" style="text;html=1;align=center;verticalAlign=middle;resizable=0;points=[];autosize=1;strokeColor=none;fillColor=none;fontSize=16;" parent="KI2yaJVuh1rtXTNmggCS-3" vertex="1">
          <mxGeometry x="-2" y="550" width="110" height="30" as="geometry" />
        </mxCell>
        <mxCell id="7SIMSKuL1KMGcHpLnaTH-9" value="&lt;font style=&quot;font-size: 12px;&quot;&gt;&amp;lt;&amp;lt;constructor&amp;gt;&amp;gt;&lt;/font&gt;" style="text;html=1;align=center;verticalAlign=middle;resizable=0;points=[];autosize=1;strokeColor=none;fillColor=none;fontSize=16;" parent="KI2yaJVuh1rtXTNmggCS-3" vertex="1">
          <mxGeometry y="600" width="110" height="30" as="geometry" />
        </mxCell>
        <mxCell id="7SIMSKuL1KMGcHpLnaTH-10" value="&lt;font style=&quot;font-size: 12px;&quot;&gt;+C1(string pubStrC1, string pubStrC11)&lt;/font&gt;" style="text;html=1;align=center;verticalAlign=middle;resizable=0;points=[];autosize=1;strokeColor=none;fillColor=none;fontSize=16;" parent="KI2yaJVuh1rtXTNmggCS-3" vertex="1">
          <mxGeometry y="620" width="230" height="30" as="geometry" />
        </mxCell>
        <mxCell id="7SIMSKuL1KMGcHpLnaTH-11" value="&lt;font style=&quot;font-size: 12px;&quot;&gt;- PrivateMethod() : void&lt;/font&gt;" style="text;html=1;align=center;verticalAlign=middle;resizable=0;points=[];autosize=1;strokeColor=none;fillColor=none;fontSize=16;" parent="KI2yaJVuh1rtXTNmggCS-3" vertex="1">
          <mxGeometry x="-3" y="659" width="150" height="30" as="geometry" />
        </mxCell>
        <mxCell id="7SIMSKuL1KMGcHpLnaTH-13" value="&lt;font style=&quot;font-size: 12px;&quot;&gt;+ PublicMethod() : void&lt;/font&gt;" style="text;html=1;align=center;verticalAlign=middle;resizable=0;points=[];autosize=1;strokeColor=none;fillColor=none;fontSize=16;" parent="KI2yaJVuh1rtXTNmggCS-3" vertex="1">
          <mxGeometry x="-5" y="685" width="150" height="30" as="geometry" />
        </mxCell>
        <mxCell id="7SIMSKuL1KMGcHpLnaTH-14" value="&lt;font style=&quot;font-size: 12px;&quot;&gt;# ProtetedMethod() : void&lt;/font&gt;" style="text;html=1;align=center;verticalAlign=middle;resizable=0;points=[];autosize=1;strokeColor=none;fillColor=none;fontSize=16;" parent="KI2yaJVuh1rtXTNmggCS-3" vertex="1">
          <mxGeometry x="-3" y="710" width="160" height="30" as="geometry" />
        </mxCell>
        <mxCell id="7SIMSKuL1KMGcHpLnaTH-15" value="&lt;&lt;interface&gt;&gt; &#xa;I1" style="swimlane;fontStyle=2;align=center;verticalAlign=top;childLayout=stackLayout;horizontal=1;startSize=35;horizontalStack=0;resizeParent=1;resizeLast=0;collapsible=1;marginBottom=0;rounded=0;shadow=0;strokeWidth=1;" parent="1" vertex="1">
          <mxGeometry x="870" y="216.5" width="240" height="192" as="geometry">
            <mxRectangle x="780" y="40" width="160" height="26" as="alternateBounds" />
          </mxGeometry>
        </mxCell>
        <mxCell id="7SIMSKuL1KMGcHpLnaTH-16" value="&lt;&lt;getter&gt;&gt; PropertyI1 : int" style="text;align=left;verticalAlign=top;spacingLeft=4;spacingRight=4;overflow=hidden;rotatable=0;points=[[0,0.5],[1,0.5]];portConstraint=eastwest;" parent="7SIMSKuL1KMGcHpLnaTH-15" vertex="1">
          <mxGeometry y="35" width="240" height="26" as="geometry" />
        </mxCell>
        <mxCell id="7SIMSKuL1KMGcHpLnaTH-17" value="&lt;&lt;setter&gt;&gt; I1_Property : int" style="text;align=left;verticalAlign=top;spacingLeft=4;spacingRight=4;overflow=hidden;rotatable=0;points=[[0,0.5],[1,0.5]];portConstraint=eastwest;rounded=0;shadow=0;html=0;" parent="7SIMSKuL1KMGcHpLnaTH-15" vertex="1">
          <mxGeometry y="61" width="240" height="26" as="geometry" />
        </mxCell>
        <mxCell id="7SIMSKuL1KMGcHpLnaTH-18" value="MethodI1() : void" style="text;align=left;verticalAlign=top;spacingLeft=4;spacingRight=4;overflow=hidden;rotatable=0;points=[[0,0.5],[1,0.5]];portConstraint=eastwest;rounded=0;shadow=0;html=0;" parent="7SIMSKuL1KMGcHpLnaTH-15" vertex="1">
          <mxGeometry y="87" width="240" height="26" as="geometry" />
        </mxCell>
        <mxCell id="7SIMSKuL1KMGcHpLnaTH-19" value="&lt;&lt;event&gt;&gt; EventI1 : EventHandler" style="text;align=left;verticalAlign=top;spacingLeft=4;spacingRight=4;overflow=hidden;rotatable=0;points=[[0,0.5],[1,0.5]];portConstraint=eastwest;" parent="7SIMSKuL1KMGcHpLnaTH-15" vertex="1">
          <mxGeometry y="113" width="240" height="26" as="geometry" />
        </mxCell>
        <mxCell id="7SIMSKuL1KMGcHpLnaTH-20" value="&lt;&lt;getter&gt;&gt;&lt;&lt;indexer&gt;&gt;this[int] : int" style="text;align=left;verticalAlign=top;spacingLeft=4;spacingRight=4;overflow=hidden;rotatable=0;points=[[0,0.5],[1,0.5]];portConstraint=eastwest;" parent="7SIMSKuL1KMGcHpLnaTH-15" vertex="1">
          <mxGeometry y="139" width="240" height="26" as="geometry" />
        </mxCell>
        <mxCell id="7SIMSKuL1KMGcHpLnaTH-21" value="&lt;&lt;setter&gt;&gt;&lt;&lt;indexer&gt;&gt;this[int] : int" style="text;align=left;verticalAlign=top;spacingLeft=4;spacingRight=4;overflow=hidden;rotatable=0;points=[[0,0.5],[1,0.5]];portConstraint=eastwest;" parent="7SIMSKuL1KMGcHpLnaTH-15" vertex="1">
          <mxGeometry y="165" width="240" height="26" as="geometry" />
        </mxCell>
        <mxCell id="ojg8k4hPZY7826V72sOn-5" style="rounded=0;orthogonalLoop=1;jettySize=auto;html=1;entryX=0;entryY=0.5;entryDx=0;entryDy=0;dashed=1;endArrow=block;endFill=0;" parent="1" source="7SIMSKuL1KMGcHpLnaTH-22" target="7SIMSKuL1KMGcHpLnaTH-15" edge="1">
          <mxGeometry relative="1" as="geometry" />
        </mxCell>
        <mxCell id="7SIMSKuL1KMGcHpLnaTH-22" value="C2" style="swimlane;whiteSpace=wrap;html=1;" parent="1" vertex="1">
          <mxGeometry x="420" y="120" width="330" height="385" as="geometry" />
        </mxCell>
        <mxCell id="7SIMSKuL1KMGcHpLnaTH-23" value="&amp;lt;&amp;lt;event&amp;gt;&amp;gt; + EventI1 : EventHardler" style="text;html=1;align=center;verticalAlign=middle;resizable=0;points=[];autosize=1;strokeColor=none;fillColor=none;" parent="7SIMSKuL1KMGcHpLnaTH-22" vertex="1">
          <mxGeometry x="-4" y="20" width="220" height="30" as="geometry" />
        </mxCell>
        <mxCell id="7SIMSKuL1KMGcHpLnaTH-25" value="- PrivateField" style="text;html=1;align=center;verticalAlign=middle;resizable=0;points=[];autosize=1;strokeColor=none;fillColor=none;" parent="7SIMSKuL1KMGcHpLnaTH-22" vertex="1">
          <mxGeometry y="60" width="90" height="30" as="geometry" />
        </mxCell>
        <mxCell id="7SIMSKuL1KMGcHpLnaTH-26" value="&amp;lt;&amp;lt;getter&amp;gt;&amp;gt;+ PropertyI1 : int" style="text;html=1;align=center;verticalAlign=middle;resizable=0;points=[];autosize=1;strokeColor=none;fillColor=none;" parent="7SIMSKuL1KMGcHpLnaTH-22" vertex="1">
          <mxGeometry x="-2" y="80" width="170" height="30" as="geometry" />
        </mxCell>
        <mxCell id="7SIMSKuL1KMGcHpLnaTH-27" value="&amp;lt;&amp;lt;setter&amp;gt;&amp;gt;+ PropertyI1 : int" style="text;html=1;align=center;verticalAlign=middle;resizable=0;points=[];autosize=1;strokeColor=none;fillColor=none;" parent="7SIMSKuL1KMGcHpLnaTH-22" vertex="1">
          <mxGeometry x="-2" y="100" width="170" height="30" as="geometry" />
        </mxCell>
        <mxCell id="7SIMSKuL1KMGcHpLnaTH-43" value="&lt;font style=&quot;font-size: 12px;&quot;&gt;&amp;lt;&amp;lt;constructor&amp;gt;&amp;gt;&lt;/font&gt;" style="text;html=1;align=center;verticalAlign=middle;resizable=0;points=[];autosize=1;strokeColor=none;fillColor=none;fontSize=16;" parent="7SIMSKuL1KMGcHpLnaTH-22" vertex="1">
          <mxGeometry x="-4" y="150" width="110" height="30" as="geometry" />
        </mxCell>
        <mxCell id="7SIMSKuL1KMGcHpLnaTH-44" value="&lt;font style=&quot;font-size: 12px;&quot;&gt;+C2()&lt;/font&gt;" style="text;html=1;align=center;verticalAlign=middle;resizable=0;points=[];autosize=1;strokeColor=none;fillColor=none;fontSize=16;" parent="7SIMSKuL1KMGcHpLnaTH-22" vertex="1">
          <mxGeometry y="170" width="50" height="30" as="geometry" />
        </mxCell>
        <mxCell id="7SIMSKuL1KMGcHpLnaTH-45" value="&lt;font style=&quot;font-size: 12px;&quot;&gt;+C2(C2 c)&lt;/font&gt;" style="text;html=1;align=center;verticalAlign=middle;resizable=0;points=[];autosize=1;strokeColor=none;fillColor=none;fontSize=16;" parent="7SIMSKuL1KMGcHpLnaTH-22" vertex="1">
          <mxGeometry y="240" width="80" height="30" as="geometry" />
        </mxCell>
        <mxCell id="7SIMSKuL1KMGcHpLnaTH-46" value="&lt;font style=&quot;font-size: 12px;&quot;&gt;&amp;lt;&amp;lt;constructor&amp;gt;&amp;gt;&lt;/font&gt;" style="text;html=1;align=center;verticalAlign=middle;resizable=0;points=[];autosize=1;strokeColor=none;fillColor=none;fontSize=16;" parent="7SIMSKuL1KMGcHpLnaTH-22" vertex="1">
          <mxGeometry x="-4" y="210" width="110" height="30" as="geometry" />
        </mxCell>
        <mxCell id="7SIMSKuL1KMGcHpLnaTH-47" value="&lt;font style=&quot;font-size: 12px;&quot;&gt;&amp;lt;&amp;lt;constructor&amp;gt;&amp;gt;&lt;/font&gt;" style="text;html=1;align=center;verticalAlign=middle;resizable=0;points=[];autosize=1;strokeColor=none;fillColor=none;fontSize=16;" parent="7SIMSKuL1KMGcHpLnaTH-22" vertex="1">
          <mxGeometry y="280" width="110" height="30" as="geometry" />
        </mxCell>
        <mxCell id="7SIMSKuL1KMGcHpLnaTH-48" value="&lt;font style=&quot;font-size: 12px;&quot;&gt;+C2(string pubIntC2, string pubStrC2)&lt;/font&gt;" style="text;html=1;align=center;verticalAlign=middle;resizable=0;points=[];autosize=1;strokeColor=none;fillColor=none;fontSize=16;" parent="7SIMSKuL1KMGcHpLnaTH-22" vertex="1">
          <mxGeometry x="-4" y="310" width="230" height="30" as="geometry" />
        </mxCell>
        <mxCell id="7SIMSKuL1KMGcHpLnaTH-50" value="&lt;font style=&quot;font-size: 12px;&quot;&gt;+ MethodI1() : void&lt;/font&gt;" style="text;html=1;align=center;verticalAlign=middle;resizable=0;points=[];autosize=1;strokeColor=none;fillColor=none;fontSize=16;" parent="7SIMSKuL1KMGcHpLnaTH-22" vertex="1">
          <mxGeometry x="5" y="340" width="120" height="30" as="geometry" />
        </mxCell>
        <mxCell id="acr7ixPtklWTtGAfLahB-2" value="" style="endArrow=none;html=1;rounded=0;exitX=0.019;exitY=-0.007;exitDx=0;exitDy=0;exitPerimeter=0;" parent="7SIMSKuL1KMGcHpLnaTH-22" edge="1">
          <mxGeometry width="50" height="50" relative="1" as="geometry">
            <mxPoint x="-0.9100000000000819" y="149.78999999999996" as="sourcePoint" />
            <mxPoint x="331" y="150" as="targetPoint" />
            <Array as="points" />
          </mxGeometry>
        </mxCell>
        <mxCell id="acr7ixPtklWTtGAfLahB-1" value="" style="endArrow=none;html=1;rounded=0;" parent="1" edge="1">
          <mxGeometry width="50" height="50" relative="1" as="geometry">
            <mxPoint x="30" y="520" as="sourcePoint" />
            <mxPoint x="340" y="520" as="targetPoint" />
            <Array as="points" />
          </mxGeometry>
        </mxCell>
        <mxCell id="ojg8k4hPZY7826V72sOn-3" value="Extends" style="endArrow=block;endSize=16;endFill=0;html=1;rounded=0;entryX=0.995;entryY=0.116;entryDx=0;entryDy=0;entryPerimeter=0;exitX=-0.001;exitY=0.04;exitDx=0;exitDy=0;exitPerimeter=0;edgeStyle=orthogonalEdgeStyle;" parent="1" source="7SIMSKuL1KMGcHpLnaTH-47" edge="1">
          <mxGeometry width="160" relative="1" as="geometry">
            <mxPoint x="779" y="310" as="sourcePoint" />
            <mxPoint x="340" y="402" as="targetPoint" />
          </mxGeometry>
        </mxCell>
      </root>
    </mxGraphModel>
  </diagram>
</mxfile>
